<?xml version="1.0" encoding="UTF-8" standalone="no"?>
<!-- Created with Inkscape (http://www.inkscape.org/) -->

<svg
   width="143.8485mm"
   height="372.53854mm"
   viewBox="0 0 143.84849 372.53854"
   version="1.1"
   id="svg1"
   xml:space="preserve"
   inkscape:version="1.4 (e7c3feb1, 2024-10-09)"
   sodipodi:docname="contaminated.svg"
   xmlns:inkscape="http://www.inkscape.org/namespaces/inkscape"
   xmlns:sodipodi="http://sodipodi.sourceforge.net/DTD/sodipodi-0.dtd"
   xmlns="http://www.w3.org/2000/svg"
   xmlns:svg="http://www.w3.org/2000/svg"><sodipodi:namedview
     id="namedview1"
     pagecolor="#ffffff"
     bordercolor="#666666"
     borderopacity="1.0"
     inkscape:showpageshadow="2"
     inkscape:pageopacity="0.0"
     inkscape:pagecheckerboard="0"
     inkscape:deskcolor="#d1d1d1"
     inkscape:document-units="mm"
     inkscape:zoom="0.52410024"
     inkscape:cx="230.87186"
     inkscape:cy="666.85716"
     inkscape:window-width="1488"
     inkscape:window-height="682"
     inkscape:window-x="0"
     inkscape:window-y="38"
     inkscape:window-maximized="0"
     inkscape:current-layer="layer1" /><defs
     id="defs1" /><g
     inkscape:label="Layer 1"
     inkscape:groupmode="layer"
     id="layer1"
     transform="translate(-98.428947,-196.86731)"><path
       style="fill:#000000;stroke-width:6.66883"
       d="m 148.74563,247.36512 c 1.40804,-10.9983 4.94647,-27.13059 7.86313,-35.84959 l 5.30306,-15.85277 15.92808,-5.96055 15.928,-5.96057 9.96876,6.98869 c 5.48281,3.84384 13.81526,15.47143 18.51649,25.83903 4.70125,10.3676 8.57594,21.25591 8.61033,24.19625 0.039,3.00604 -15.32844,8.9179 -35.10034,13.50654 -19.33948,4.48829 -38.40611,9.26957 -42.37023,10.62511 l -7.20738,2.4646 z"
       id="path18" /><path
       style="fill:#000000;stroke-width:6.66883"
       d="m 113.84144,262.19512 c 8.67011,-19.091 21.62913,-44.03405 28.79794,-55.42908 7.16874,-11.39501 14.25373,-19.4944 15.74425,-17.99852 1.49065,1.49587 0.47283,5.45414 -2.26105,8.79612 -2.73426,3.34198 -6.55552,18.91721 -8.49174,34.61175 l -3.52037,28.53547 -14.32764,13.43117 c -7.88032,7.38722 -18.23765,15.53112 -23.01643,18.09763 l -8.688746,4.66644 z"
       id="path17" /><path
       style="fill:#000000;stroke-width:6.66883"
       d="m 172.89043,292.08817 c -8.80106,-11.0537 -16.00194,-21.4113 -16.00194,-23.0171 0,-1.60573 15.92743,-6.01318 35.39425,-9.79426 19.46683,-3.78114 36.11886,-6.15021 37.00445,-5.26466 0.88556,0.88561 -6.36924,14.33692 -16.12179,29.89182 -9.75252,15.55489 -19.20371,28.28169 -21.00255,28.28169 -1.79882,0 -10.47139,-9.04388 -19.27242,-20.09749 z"
       id="path16" /><path
       style="fill:#000000;stroke-width:6.66883"
       d="m 128.01678,311.0956 -30.200105,-4.86118 23.653225,-18.04527 23.65334,-18.04524 8.10075,7.31078 c 4.45533,4.02093 13.87423,14.59115 20.93071,23.48935 l 12.83015,16.17863 -14.38402,-0.58296 c -7.91121,-0.32061 -27.97408,-2.77045 -44.58405,-5.44411 z"
       id="path15" /><path
       style="fill:#000000;stroke-width:6.66883"
       d="m 203.18185,306.42918 c 0.83026,-1.3437 8.13778,-13.19396 16.23887,-26.33391 l 14.72934,-23.89084 2.079,15.74713 c 1.14346,8.66094 2.79226,19.58776 3.66407,24.2819 l 1.58499,8.53478 -7.49518,2.00753 c -4.12234,1.10415 -13.07866,2.02759 -19.90287,2.05199 -6.8243,0.0266 -11.72849,-1.05487 -10.89822,-2.39858 z"
       id="path14" /><path
       style="fill:#000000;stroke-width:6.61671"
       d="m 174.45549,520.15949 c 0.015,-7.61008 3.34386,-55.87203 7.40186,-107.24878 5.06733,-64.15476 8.82407,-94.28934 11.99445,-96.21258 2.53891,-1.54011 11.55227,-2.82467 20.02965,-2.85438 8.47746,-0.0288 18.33465,-1.12499 21.90479,-2.43376 l 6.49121,-2.37966 -2.83051,6.79552 c -1.55681,3.7376 -16.16693,53.69247 -32.46694,111.01091 -16.3,57.3184 -30.29157,104.87764 -31.09228,105.68724 -0.80072,0.80957 -1.44524,-4.75447 -1.43223,-12.36451 z"
       id="path13" /><path
       style="fill:#000000;stroke-width:6.66883"
       d="M 156.90725,550.67522 145.96122,532.00903 125.48936,437.54239 C 114.22989,385.58569 103.53514,335.92452 101.72328,327.18422 l -3.294333,-15.89153 21.682323,2.15818 c 11.92528,1.18704 30.84391,3.7246 42.04149,5.63917 l 20.35915,3.48092 -0.006,11.88107 c -0.003,6.53467 -2.91208,54.39118 -6.46351,106.34783 -3.55143,51.95665 -6.71278,102.16239 -7.02522,111.56839 -0.31276,9.40593 -0.70203,17.07281 -0.86581,17.03747 -0.16413,-0.0334 -5.22344,-8.46401 -11.24381,-18.7305 z"
       id="path2" /></g></svg>
